<svg id="Layer_1" data-name="Layer 1" xmlns="http://www.w3.org/2000/svg" viewBox="0 0 500 500"><defs><style>.cls-1{fill:#300;}.cls-2{fill:#ff9a00;}</style></defs><title>icon</title><g id="Layer_2" data-name="Layer 2"><g id="Surfaces"><g id="Drawing_Surface" data-name="Drawing Surface"><g id="Outline_no_shadow" data-name="Outline no shadow"><path class="cls-1" d="M88.54,0H411.46C460.41,0,500,40.59,500,90.81V409.19C500,459.4,460.42,500,411.46,500H88.54C39.59,500,0,459.41,0,409.19V90.81C0,40.6,39.58,0,88.54,0Z"/></g></g></g><g id="Outlined_Mnemonics_Logos" data-name="Outlined Mnemonics Logos"><g id="Ai"><path class="cls-2" d="M250.63,316.14h-77.5l-15.84,49a3.64,3.64,0,0,1-3.95,2.91H114.17c-2.29,0-2.92-1.24-2.29-3.75L179,171.13c.62-2.09,1.25-4.37,2.09-6.87a73.13,73.13,0,0,0,1.24-13.55,2.06,2.06,0,0,1,1.67-2.29h54c1.66,0,2.5.62,2.71,1.67l76,214.58c.62,2.29,0,3.33-2.09,3.33H271.05a3.14,3.14,0,0,1-3.33-2.29Zm-65.41-42.3h52.91c-1.25-4.37-2.91-9.57-4.79-15-1.88-5.62-3.76-11.66-5.62-17.91-2.09-6.45-4-12.71-6.05-19.16s-3.95-12.5-5.62-18.55c-1.67-5.83-3.12-11.25-4.58-16.25h-.42A256.82,256.82,0,0,1,204,213.84c-3.12,10-6.24,20.43-9.58,30.84-2.92,10.62-6,20.42-9.16,29.16Z"/><path class="cls-2" d="M362.09,184.06a25.79,25.79,0,0,1-18.54-7.29,27.13,27.13,0,0,1-7.09-19.17,24.5,24.5,0,0,1,7.5-18.54,26.69,26.69,0,0,1,18.54-7.29c8.13,0,14.38,2.5,19,7.29a26.3,26.3,0,0,1,6.88,18.54,26.36,26.36,0,0,1-7.29,19.17A24.5,24.5,0,0,1,362.09,184.06ZM338.76,364.89V204.48c0-2.09.83-2.91,2.71-2.91h41.25c1.87,0,2.71,1,2.71,2.91V364.9c0,2.29-.84,3.33-2.71,3.33H341.88C339.79,368.22,338.76,367,338.76,364.89Z"/></g></g></g></svg>