<svg id="Layer_1" data-name="Layer 1" xmlns="http://www.w3.org/2000/svg" viewBox="0 0 500 500"><defs><style>.cls-1{fill:#001e36;}.cls-2{fill:#31a8ff;}</style></defs><title>icon</title><path class="cls-1" d="M88.54,0H411.46C460.42,0,500,40.6,500,90.81V409.19C500,459.4,460.42,500,411.46,500H88.54C39.58,500,0,459.4,0,409.19V90.81C0,40.6,39.58,0,88.54,0Z"/><path class="cls-2" d="M112.5,355.42V141c0-1.46.62-2.29,2.08-2.29,3.55,0,6.88,0,11.67-.21,5-.21,10.21-.21,15.83-.41s11.67-.21,18.13-.42,12.71-.21,19-.21c17.08,0,31.25,2.08,42.91,6.46A74.36,74.36,0,0,1,250,161a66.4,66.4,0,0,1,15.21,23.75A79.88,79.88,0,0,1,270,211.88q0,26.87-12.5,44.37A71.35,71.35,0,0,1,224,281.67c-14.17,5.21-29.79,7.08-46.88,7.08-5,0-8.33,0-10.41-.21s-5-.21-9-.21v66.88a2.58,2.58,0,0,1-2.29,2.91H115c-1.67,0-2.5-.83-2.5-2.7ZM157.92,179v70c2.91.21,5.62.42,8.12.42h11a77.53,77.53,0,0,0,24-3.76,35.73,35.73,0,0,0,17.08-11c4.38-5.21,6.46-12.29,6.46-21.46a34.33,34.33,0,0,0-4.79-18.54,30.22,30.22,0,0,0-14.58-11.87,61,61,0,0,0-24.59-4.17c-5.41,0-10.2,0-14.16.21a47.25,47.25,0,0,0-8.54.21ZM400,236.25a73.94,73.94,0,0,0-20-7.08,109.64,109.64,0,0,0-23.33-2.71,41.58,41.58,0,0,0-12.5,1.46,10.68,10.68,0,0,0-6.46,4.16,11.07,11.07,0,0,0-1.67,5.63,9.24,9.24,0,0,0,2.08,5.41,23.49,23.49,0,0,0,7.09,5.63c4.79,2.5,9.79,4.79,14.79,6.87a150.88,150.88,0,0,1,32.08,15.21,48.51,48.51,0,0,1,16.46,17.29,45,45,0,0,1,4.79,21.46,48.5,48.5,0,0,1-8.12,27.71,52.25,52.25,0,0,1-23.34,18.54c-10.2,4.38-22.7,6.67-37.7,6.67a143.19,143.19,0,0,1-28.34-2.71,83.91,83.91,0,0,1-21.25-6.67,4.08,4.08,0,0,1-2.29-3.95V312.92a2.28,2.28,0,0,1,.83-1.88,1.6,1.6,0,0,1,1.88.21,89.14,89.14,0,0,0,25.83,10.21,97.17,97.17,0,0,0,24.59,3.12c7.91,0,13.54-1,17.29-2.91a9.68,9.68,0,0,0,5.62-8.75c0-2.92-1.66-5.63-5-8.34s-10.21-5.83-20.41-9.79a127.48,127.48,0,0,1-29.59-15,53.84,53.84,0,0,1-15.83-17.71,44.68,44.68,0,0,1-4.79-21.25,49,49,0,0,1,7.08-25.2,51.35,51.35,0,0,1,21.88-19.17c9.79-5,22.08-7.29,36.87-7.29A179.55,179.55,0,0,1,384.37,191a73.64,73.64,0,0,1,17.92,4.79,3.67,3.67,0,0,1,2.08,1.88,10.38,10.38,0,0,1,.42,2.5v34a2.58,2.58,0,0,1-1,2.08c-1.88.42-2.92.42-3.75,0Z"/></svg>