<svg id="Layer_1" data-name="Layer 1" xmlns="http://www.w3.org/2000/svg" xmlns:xlink="http://www.w3.org/1999/xlink" viewBox="0 0 500 500"><defs><style>.cls-1{fill:#4d4d4e;}.cls-2{fill:#f89820;}.cls-3{fill:url(#未命名漸層_2);}</style><linearGradient id="未命名漸層_2" x1="-1181.94" y1="232.64" x2="-1135.51" y2="248.7" gradientTransform="matrix(5.59, 0, 0, -5.59, 6737.39, 1682.56)" gradientUnits="userSpaceOnUse"><stop offset="0.23" stop-color="#f89822"/><stop offset="1" stop-color="#c27818"/></linearGradient></defs><title>icon</title><g id="Layer_2" data-name="Layer 2"><g id="Surfaces"><g id="Drawing_Surface" data-name="Drawing Surface"><g id="Outline_no_shadow" data-name="Outline no shadow"><path class="cls-1" d="M88.54,0H411.46C460.41,0,500,40.59,500,90.81V409.19C500,459.4,460.42,500,411.46,500H88.54C39.59,500,0,459.41,0,409.19V90.81C0,40.6,39.58,0,88.54,0Z"/></g></g></g></g><path class="cls-2" d="M118,152.56,374.75,71.08S393,61.52,388.59,79.2l.66,78.53s3.18,11.53-12.63,14.38L272.29,204.73Z"/><path class="cls-2" d="M118,152.56s-10.1,2.42-7.14,19.66l-.54,75.67s-.88,9.55,17.24,13.4L382,343.21s8.57,3.41,7.58-7.14l.11-84.34s2.41-8.67-13.4-14.39l-104-32.61Z"/><path class="cls-3" d="M230.12,294.23,121.84,327.29s-13.07.44-11.53,24.93-.11,73.8-.11,73.8,1.09,9.11,13.61,3.84l256.76-81.93s9.12-2.3,1.43-4.83S230.12,294.23,230.12,294.23Z"/></svg>