<svg id="Layer_1" data-name="Layer 1" xmlns="http://www.w3.org/2000/svg" viewBox="0 0 500 500"><defs><style>.cls-1{fill:#fff;}.cls-2{fill:#2489ca;}.cls-3{fill:#1070b3;}.cls-4{fill:#0877b9;}.cls-5{fill:#3c99d4;}</style></defs><title>icon</title><g id="Surfaces"><g id="Drawing_Surface" data-name="Drawing Surface"><g id="Outline_no_shadow" data-name="Outline no shadow"><path class="cls-1" d="M88.54,0H411.46C460.41,0,500,40.59,500,90.81V409.19C500,459.4,460.42,500,411.46,500H88.54C39.59,500,0,459.41,0,409.19V90.81C0,40.6,39.58,0,88.54,0Z"/></g></g></g><path class="cls-2" d="M112.84,208.15s-6.81-4.91,1.36-11.47l19-17s5.44-5.73,11.2-.73L320.18,312v63.79s-.09,10-12.94,8.92Z"/><path class="cls-3" d="M158.13,249.27l-45.29,41.18s-4.65,3.46,0,9.65l21,19.12s5,5.37,12.37-.73l48-36.42Z"/><path class="cls-4" d="M237.65,249.61l83.07-63.43-.54-63.45s-3.55-13.85-15.38-6.64L194.26,216.69Z"/><path class="cls-5" d="M307.24,384.75a11.41,11.41,0,0,0,10.67,3.32l64.73-31.9c8.29-5.64,7.12-12.65,7.12-12.65V153c0-8.37-8.57-11.26-8.57-11.26l-56.1-27.05c-12.26-7.57-20.29,1.37-20.29,1.37s10.33-7.44,15.38,6.64V374.59a11.46,11.46,0,0,1-1.11,5c-1.47,3-4.68,5.76-12.37,4.59Z"/></svg>