<svg id="Layer_1" data-name="Layer 1" xmlns="http://www.w3.org/2000/svg" viewBox="0 0 500 500"><defs><style>.cls-1{fill:#470137;}.cls-2{fill:#ff61f6;}</style></defs><title>icon</title><g id="Surfaces"><g id="Drawing_Surface" data-name="Drawing Surface"><g id="Outline_no_shadow" data-name="Outline no shadow"><path class="cls-1" d="M88.54,0H411.46C460.41,0,500,40.59,500,90.81V409.19C500,459.4,460.42,500,411.46,500H88.54C39.59,500,0,459.41,0,409.19V90.81C0,40.6,39.58,0,88.54,0Z"/></g></g></g><path class="cls-2" d="M262,157.36l-58.33,96.25,62.21,102.08a3.3,3.3,0,0,1,.39,2.33c-.19.78-1,.19-2.14.39H219.61c-3.11,0-5.25-.2-6.61-2.14-4.08-8.17-8.36-16.14-12.45-24.31-4.08-8-8.55-16.13-13.22-24.49s-9.33-16.73-14-25.28h-.39c-4.08,8.36-8.55,16.72-13,25.08S151,324,146.7,332.16c-4.48,8.17-8.95,16.53-13.42,24.5-.78,1.94-2.33,2.14-4.47,2.14H86c-.78,0-1.36.39-1.36-.59a2.73,2.73,0,0,1,.39-2.14l60.47-99.16L86.62,157.17c-.59-.78-.78-1.56-.39-1.95a2.25,2.25,0,0,1,1.94-.77h44.14a11.74,11.74,0,0,1,2.72.38,5.54,5.54,0,0,1,1.94,1.75c3.7,8.37,8,16.73,12.45,25.09,4.66,8.36,9.14,16.52,14,24.69,4.66,8.17,8.94,16.33,13,24.69h.39c4.09-8.55,8.36-16.91,12.64-25.08s8.75-16.33,13.22-24.5,8.75-16.52,13-24.5a3.27,3.27,0,0,1,1.17-1.94,3.7,3.7,0,0,1,2.52-.39h41a1.8,1.8,0,0,1,2.14,1.36c.19.2-.2,1-.58,1.36Zm89.82,205.13a96.57,96.57,0,0,1-41.8-8.75,67.8,67.8,0,0,1-29.36-26.44C273.47,315.44,270,300.66,270,283a79.86,79.86,0,0,1,10.69-41,80.71,80.71,0,0,1,30.92-30.14c13.61-7.58,29.94-11.27,49.19-11.27a35.5,35.5,0,0,1,4.08.19c1.75.2,3.7.2,6,.39V139.67c0-1.36.58-2.14,1.94-2.14h39.47a1.75,1.75,0,0,1,1.95,1.36V324.38c0,3.5.19,7.39.39,11.67.39,4.08.58,8,.77,11.28a3.16,3.16,0,0,1-1.94,3.11,149.19,149.19,0,0,1-31.69,9.33,171.53,171.53,0,0,1-29.95,2.72Zm19.06-38.89V238.05a50.89,50.89,0,0,0-5.25-1c-2.14-.19-4.28-.39-6.42-.39a48,48,0,0,0-22,5.06,43.41,43.41,0,0,0-16.52,14.39c-4.28,6.22-6.42,14.58-6.42,24.69a54.18,54.18,0,0,0,3.3,20,38.13,38.13,0,0,0,8.75,13.8,33.69,33.69,0,0,0,13.23,7.78A50.82,50.82,0,0,0,355.71,325c2.92,0,5.64-.2,8.17-.39a17,17,0,0,0,7-1Z"/></svg>